<svg width="169" height="56" viewBox="0 0 169 56" fill="none" xmlns="http://www.w3.org/2000/svg">
<path d="M37.0578 55.9229C33.8799 55.9229 31.0864 55.203 28.6775 53.7631C26.2685 52.2719 24.3976 50.3177 23.065 47.9008C21.7323 45.4325 21.0661 42.7328 21.0661 39.8016V14.887C21.0661 13.9614 20.8354 13.1129 20.3741 12.3416C19.9128 11.5702 19.2977 10.9531 18.5289 10.4903C17.7601 10.0275 16.9144 9.79612 15.9918 9.79612C15.0692 9.79612 14.2234 10.0275 13.4546 10.4903C12.737 10.9531 12.1476 11.5702 11.6863 12.3416C11.225 13.1129 10.9944 13.9614 10.9944 14.887V54.9972H0V16.1983C0 13.2158 0.666322 10.5161 1.99896 8.09918C3.33161 5.68228 5.20243 3.75391 7.61144 2.31406C10.0204 0.822777 12.8139 0.0771387 15.9918 0.0771387C19.2209 0.0771387 22.0399 0.822777 24.4489 2.31406C26.8579 3.75391 28.7287 5.68228 30.0614 8.09918C31.394 10.5161 32.0604 13.2158 32.0604 16.1983V41.1129C32.0604 42.0386 32.291 42.887 32.7523 43.6584C33.2136 44.4297 33.803 45.0468 34.5206 45.5096C35.2895 45.9724 36.1352 46.2038 37.0578 46.2038C37.9804 46.2038 38.8261 45.9724 39.5949 45.5096C40.3638 45.0468 40.9788 44.4297 41.4401 43.6584C41.9014 42.887 42.1321 42.0386 42.1321 41.1129V1.00276H53.1264V39.8016C53.1264 42.7328 52.46 45.4325 51.1274 47.9008C49.7947 50.3177 47.9239 52.2719 45.5149 53.7631C43.1059 55.203 40.2869 55.9229 37.0578 55.9229ZM62.1637 54.9972L76.2333 31.6253C73.7219 30.6997 71.5178 29.3884 69.6214 27.6914C67.7762 25.9431 66.3411 23.8347 65.3159 21.3664C64.2908 18.898 63.7783 16.0955 63.7783 12.9587V1.00276H74.7726V13.6529C74.7726 15.2471 75.1058 16.7383 75.772 18.1267C76.4383 19.4637 77.3866 20.5694 78.6167 21.4435C79.8469 22.3177 81.282 22.8577 82.9222 23.0633L95.9155 1.00276H108.294L94.224 23.9118C97.094 24.6318 99.6061 25.8659 101.759 27.6143C103.912 29.3628 105.577 31.5482 106.756 34.1708C107.935 36.742 108.525 39.6989 108.525 43.0413V54.9972H97.5303V42.3471C97.5303 39.6731 96.6586 37.4362 94.916 35.6363C93.2245 33.7851 90.7899 32.8595 87.6121 32.8595L74.5419 54.9972H62.1637ZM140.784 56C136.478 56 132.583 55.2801 129.098 53.8402C125.664 52.349 122.716 50.3177 120.256 47.7466C117.796 45.1754 115.9 42.1928 114.567 38.7989C113.235 35.4049 112.568 31.7796 112.568 27.9228C112.568 24.0661 113.235 20.4665 114.567 17.1239C115.9 13.73 117.796 10.7475 120.256 8.17631C122.716 5.60515 125.664 3.59964 129.098 2.15978C132.583 0.719927 136.478 0 140.784 0C145.089 0 148.959 0.719927 152.393 2.15978C155.879 3.59964 158.851 5.60515 161.312 8.17631C163.772 10.7475 165.669 13.73 167.001 17.1239C168.334 20.4665 169 24.0661 169 27.9228C169 31.7796 168.334 35.4049 167.001 38.7989C165.669 42.1928 163.772 45.1754 161.312 47.7466C158.851 50.3177 155.879 52.349 152.393 53.8402C148.959 55.2801 145.089 56 140.784 56ZM140.784 46.2038C143.244 46.2038 145.526 45.7668 147.626 44.8926C149.728 43.9669 151.548 42.6814 153.085 41.0358C154.675 39.3388 155.879 37.3848 156.699 35.1735C157.57 32.9624 158.006 30.5454 158.006 27.9228C158.006 25.3003 157.57 22.8834 156.699 20.6722C155.879 18.461 154.675 16.5326 153.085 14.887C151.548 13.2415 149.728 11.9816 147.626 11.1074C145.526 10.1818 143.244 9.71898 140.784 9.71898C138.324 9.71898 136.043 10.1818 133.941 11.1074C131.84 11.9816 129.995 13.2415 128.406 14.887C126.868 16.5326 125.664 18.461 124.792 20.6722C123.972 22.8834 123.562 25.3003 123.562 27.9228C123.562 30.5454 123.972 32.9624 124.792 35.1735C125.664 37.3848 126.868 39.3388 128.406 41.0358C129.995 42.6814 131.84 43.9669 133.941 44.8926C136.043 45.7668 138.324 46.2038 140.784 46.2038Z" fill="#323231"/>
</svg>
