<svg width="105" height="63" viewBox="0 0 105 63" fill="none" xmlns="http://www.w3.org/2000/svg">
<path d="M23.0241 48.9518C21.0496 48.9518 19.3141 48.5019 17.8174 47.6019C16.3206 46.6699 15.1583 45.4486 14.3303 43.938C13.5023 42.3953 13.0884 40.708 13.0884 38.876V23.3044C13.0884 22.7259 12.9451 22.1956 12.6585 21.7135C12.3719 21.2314 11.9897 20.8457 11.512 20.5565C11.0344 20.2672 10.5089 20.1226 9.93571 20.1226C9.3625 20.1226 8.83705 20.2672 8.35938 20.5565C7.91353 20.8457 7.54733 21.2314 7.26072 21.7135C6.97411 22.1956 6.83081 22.7259 6.83081 23.3044V48.3733H0V24.124C0 22.2599 0.413987 20.5725 1.24196 19.062C2.06993 17.5514 3.23228 16.3462 4.729 15.4463C6.22571 14.5142 7.96129 14.0482 9.93571 14.0482C11.942 14.0482 13.6934 14.5142 15.1902 15.4463C16.6868 16.3462 17.8492 17.5514 18.6772 19.062C19.5051 20.5725 19.9192 22.2599 19.9192 24.124V39.6956C19.9192 40.2741 20.0625 40.8044 20.3491 41.2865C20.6357 41.7686 21.0019 42.1543 21.4477 42.4435C21.9254 42.7328 22.4508 42.8774 23.0241 42.8774C23.5973 42.8774 24.1227 42.7328 24.6004 42.4435C25.0781 42.1543 25.4602 41.7686 25.7468 41.2865C26.0334 40.8044 26.1767 40.2741 26.1767 39.6956V14.6267H33.0075V38.876C33.0075 40.708 32.5935 42.3953 31.7656 43.938C30.9376 45.4486 29.7752 46.6699 28.2785 47.6019C26.7818 48.5019 25.0303 48.9518 23.0241 48.9518ZM38.6224 48.3733L47.3639 33.7658C45.8035 33.1873 44.4341 32.3678 43.2559 31.3072C42.1095 30.2144 41.2178 28.8967 40.5809 27.354C39.944 25.8113 39.6255 24.0597 39.6255 22.0992V14.6267H46.4563V22.533C46.4563 23.5294 46.6633 24.4614 47.0773 25.3292C47.4913 26.1648 48.0804 26.8559 48.8447 27.4022C49.609 27.9486 50.5006 28.286 51.5197 28.4146L59.5924 14.6267H67.2832L58.5416 28.9449C60.3247 29.3949 61.8855 30.1662 63.223 31.2589C64.5605 32.3517 65.5952 33.7176 66.3279 35.3567C67.0599 36.9637 67.4265 38.8118 67.4265 40.9008V48.3733H60.5957V40.4669C60.5957 38.7957 60.0542 37.3976 58.9715 36.2727C57.9206 35.1157 56.4079 34.5372 54.4335 34.5372L46.313 48.3733H38.6224ZM87.4693 49C84.7943 49 82.3742 48.5501 80.2086 47.6501C78.0751 46.7181 76.2438 45.4486 74.7153 43.8416C73.1867 42.2347 72.0086 40.3705 71.1805 38.2493C70.3529 36.1281 69.9385 33.8622 69.9385 31.4518C69.9385 29.0413 70.3529 26.7916 71.1805 24.7025C72.0086 22.5813 73.1867 20.7172 74.7153 19.1102C76.2438 17.5032 78.0751 16.2498 80.2086 15.3499C82.3742 14.45 84.7943 14 87.4693 14C90.1442 14 92.5488 14.45 94.6822 15.3499C96.8478 16.2498 98.6947 17.5032 100.223 19.1102C101.752 20.7172 102.93 22.5813 103.758 24.7025C104.586 26.7916 105 29.0413 105 31.4518C105 33.8622 104.586 36.1281 103.758 38.2493C102.93 40.3705 101.752 42.2347 100.223 43.8416C98.6947 45.4486 96.8478 46.7181 94.6822 47.6501C92.5488 48.5501 90.1442 49 87.4693 49ZM87.4693 42.8774C88.9978 42.8774 90.4153 42.6042 91.7206 42.0578C93.0264 41.4793 94.1567 40.6759 95.1121 39.6474C96.0997 38.5868 96.8478 37.3655 97.3572 35.9835C97.8987 34.6015 98.1692 33.0909 98.1692 31.4518C98.1692 29.8127 97.8987 28.3021 97.3572 26.9201C96.8478 25.5381 96.0997 24.3329 95.1121 23.3044C94.1567 22.276 93.0264 21.4885 91.7206 20.9421C90.4153 20.3636 88.9978 20.0744 87.4693 20.0744C85.9407 20.0744 84.5238 20.3636 83.2179 20.9421C81.9127 21.4885 80.7663 22.276 79.7786 23.3044C78.8233 24.3329 78.0751 25.5381 77.5336 26.9201C77.0242 28.3021 76.7693 29.8127 76.7693 31.4518C76.7693 33.0909 77.0242 34.6015 77.5336 35.9835C78.0751 37.3655 78.8233 38.5868 79.7786 39.6474C80.7663 40.6759 81.9127 41.4793 83.2179 42.0578C84.5238 42.6042 85.9407 42.8774 87.4693 42.8774Z" fill="#FEFDEC"/>
</svg>
